Patient4_TMGait_0pt4_02_right_06_EMG.mot
version=1
nRows=37
nColumns=33
inDegrees=no
endheader
time	1LAddLong	2LGlutMax	3LGlutMed	4LIliopsoas	5LSemiMemb	6LBicFemLong	7LRecFem	8LVastMed	9LVastLat	10LGasMed	11LTibAnt	12lTibPost	13LPeroneusLong	14LSol	15LExtDigLong	16LFlexDigLong	17RAddLong	18RGlutMax	19RGlutMed	20RIliopsoas	21RSemiMemb	22RBicFemLong	23RRecFem	24RVastMed	25RVastLat	26RGasMed	27RTibAnt	28RTibPost	29RPeroneusLong	30RSol	31RExtDigLong	32RFlexDigLong
7.862	-0.015106	0.11734	-0.003052	0.005493	0.011139	-0.037079	0.00885	-0.001984	0.07782	0.048218	0.003967	-0.017853	0.2066	-0.97412	-0.000458	0.11688	-0.013123	-0.6987	-0.49591	0.11658	0.057983	-0.12421	0.2771	0.1236	-0.015564	-0.019684	0.093536	0.004425	0.082092	-0.019684	-0.000763	-0.016022
7.863	-0.016174	0.13184	0.010376	0.016174	0.012512	-0.037689	0.025482	0.00473	0.072784	0.044708	-0.007629	-0.008545	0.01236	-0.93918	0.031738	-0.3595	-0.028381	-0.66635	-0.59647	0.065002	0.007019	-0.30395	0.12314	0.1152	-0.20309	-0.016632	-0.011749	-0.01236	0.67825	-0.018768	0.000153	-0.016937
7.864	-0.020905	0.10407	-0.003967	0.015564	0.000916	-0.016632	0.033569	0.003357	0.091095	0.037079	-0.003204	-0.019073	-0.031281	-0.99091	-0.049438	0.1178	-0.00061	-0.65262	-0.9053	-0.031128	-0.11368	-0.46402	0.13275	0.019226	-0.42465	-0.020447	-0.018463	-0.020905	1.153	-0.091095	-0.000153	-0.002289
7.865	-0.017395	0.098114	0.008698	0.019989	0.000763	-0.030975	0.039215	0.006409	0.11124	0.034332	0.010834	0.00412	-0.1294	-0.69443	-0.062256	0.084381	0.058746	-0.66895	-1.1128	-0.015106	-0.29343	-0.54916	0.29343	-0.1239	-0.67749	-0.001373	-0.038147	-0.016937	2.1233	0.038452	-0.002594	0.001678
7.866	-0.020294	0.10971	0.022125	0.009613	-0.005188	-0.029907	0.049438	0.000305	0.12604	0.022888	0.009003	0.015869	-0.18753	-0.016479	-0.00946	-0.11276	0.11017	-0.64346	-1.115	-0.0737	-0.29572	-0.56702	0.42984	-0.26749	-0.67627	-0.003815	-0.069885	-0.016479	1.0596	0.046997	0.000916	-0.005798
7.867	-0.016632	0.086517	0.018311	0.008545	0.010529	-0.038605	0.038757	0.001678	0.13199	-0.005951	0.005646	0.01358	-0.14938	0.46845	0.009613	-0.078735	0.11108	-0.71213	-0.10681	-0.15472	0.063171	-0.56229	0.39566	-0.31326	-0.46127	0.000305	-0.041504	-0.025024	0.048828	-0.12924	0.000153	0.002289
7.868	-0.015564	0.090637	0.033112	-0.013428	0.013275	-0.046387	0.054932	0.003815	0.13275	-0.00473	-0.00824	-0.00824	-0.13901	0.62317	0.02243	-0.34439	-0.020447	-0.81924	1.1668	-0.093079	0.39719	-0.30334	0.31647	-0.043335	-0.21454	0.004578	-0.03067	-0.024261	-1.5051	-0.24506	-0.001221	-0.003052
7.869	-0.013885	0.09491	0.028687	0.006256	-0.002899	-0.029449	0.033875	-0.001526	0.10819	-0.027466	0.007324	0.00824	-0.12131	0.51926	-0.006409	0.067902	-0.13565	-0.90286	0.8609	0.061646	-0.064392	0.096588	0.23102	0.041046	-0.046082	-0.000458	0.19669	-0.015869	-2.5504	-0.20157	0.000305	-0.013275
7.87	-0.015717	0.091553	0.046997	0.008087	-0.005188	-0.028839	0.019226	-0.004272	0.11307	-0.018158	0.005188	0.013123	-0.13062	0.53436	0.016785	0.005798	-0.15213	-0.77209	0.34729	0.18326	-0.24872	0.26413	0.298	0.012054	0.07431	-0.001831	0.14862	-0.015106	-1.8161	-0.074768	-0.001373	-0.019684
7.871	-0.011749	0.095367	0.036774	0.018005	-0.010223	-0.034485	0.009155	-0.003967	0.10773	-0.023956	0.010681	0.020142	-0.14969	0.20584	0.051422	0.045166	-0.058899	-0.66132	0.44754	0.098877	-0.029907	0.20294	0.38376	-0.075226	0.2861	-0.001068	0.015106	-0.00885	-0.009308	-0.10712	-0.000153	-0.022125
7.872	-0.005646	0.097198	0.053253	0.00061	0.009003	-0.03891	0.008698	0.005035	0.11688	0.000153	-0.003967	0.019073	-0.084076	0.008392	0.037231	0.029297	-0.000153	-0.65521	0.2536	0.00885	0.14282	0.12116	0.42007	-0.21286	0.59357	-0.007019	-0.054016	-0.023041	0.58136	-0.18601	0.001831	-0.021973
7.873	-0.007629	0.10407	0.048065	0.027008	-0.003357	-0.021515	0.038605	-0.000916	0.12192	-0.001984	0.004883	0.023499	0.063324	0.068207	0.03952	-0.01358	-0.018158	-0.64026	-0.34134	-0.023651	0.29617	0.16037	0.36652	-0.10696	0.61218	-0.009918	0.002136	-0.01358	0.6662	-0.074005	0.000458	-0.014954
7.874	-0.008698	0.065155	0.034027	0.010071	0.010681	-0.02533	0.056763	0.004272	0.13855	-0.015869	-0.009308	0.026093	0.22766	0.014954	0.048981	-0.012817	-0.024719	-0.63858	-0.6459	-0.004883	0.27924	0.25314	0.46982	-0.14175	0.46188	-0.004883	0.011139	-0.017395	-0.38025	0.053101	-0.001831	-0.010681
7.875	-0.009918	0.059662	0.016937	0.019379	-0.003357	-0.020599	0.024567	-0.001068	0.14984	-0.028534	0.003815	0.025787	0.17395	0.090179	0.039978	-0.042725	-0.018768	-0.59265	-0.75989	0.027771	0.14389	0.33783	0.55481	-0.09552	0.16373	0.003204	0.022125	0.001984	0.25375	0.11414	-0.000305	-0.011902
7.876	-0.01236	0.059509	0.034485	-0.001068	0.00946	-0.044098	0.030212	0.002747	0.1326	-0.03067	0.00061	0.026245	0.038452	0.032806	0.025482	0.012665	0.001984	-0.51956	-0.92728	-0.11383	0.2327	0.35767	0.57663	-0.11154	-0.17792	0.006714	0.079193	0.016937	0.79239	0.097809	0.001373	-0.005951
7.877	-0.009766	0.063019	0.047607	0.002289	0.009155	-0.035706	0.030518	0.002441	0.1358	-0.022125	0.002747	0.025787	-0.12329	0.086212	-0.006714	-0.013733	-0.02594	-0.49652	-0.035553	-0.19898	-0.010529	0.18265	0.61066	-0.056	-0.60776	0.011902	0.005493	0.006409	0.52078	-0.026703	-0.001221	-0.003357
7.878	-0.009308	0.063629	0.066223	0.008545	0.001831	-0.045929	0.035095	0.005951	0.14587	-0.019684	0.022278	0.029755	-0.094147	0.033569	-0.027618	-0.014191	-0.038757	-0.55298	0.74692	-0.24658	-0.18951	-0.021667	0.41214	0.039368	-0.93292	0.001678	-0.10239	0.002289	0.38574	-0.25986	0	0.000305
7.879	-0.010986	0.036011	0.057373	0.007782	0.012207	-0.03891	0.045319	-0.001221	0.17059	-0.032806	0.008087	0.014648	-0.1033	0.032043	-0.04364	0.004272	-0.018616	-0.50613	0.21179	-0.24628	-0.16388	-0.027008	0.30106	-0.038147	-0.61523	-0.020599	-0.078888	-0.002136	0.3038	-0.13901	-0.00061	-0.00473
7.88	-0.010834	0.054169	0.061493	0.00473	-0.007629	-0.023346	0.058441	0.000458	0.1561	-0.056763	0.003967	-0.13779	-0.31738	0.32303	-0.042114	0.03067	-0.035706	-0.63828	-0.6247	-0.15091	-0.1265	0.009003	0.052948	-0.062103	-0.13931	-0.016785	-0.1059	0.000153	0.18936	-0.14069	0.006104	-0.001221
7.881	-0.009918	0.038757	0.065918	0.00473	0.002594	-0.041046	0.071716	0.002899	0.14862	-0.081024	-0.011292	0.25986	0.21271	0.2066	-0.041656	0.003662	-0.014343	-0.66483	-0.99701	0.025787	-0.019226	-0.072021	0.18829	-0.005188	0.038757	-0.017242	-0.050507	-0.000153	-0.3418	-0.18387	-0.001678	-0.006409
7.882	-0.013123	-0.014954	0.059204	0.004425	0.011444	-0.034637	0.090637	0.002594	0.14832	-0.088196	-0.016632	0.1297	0.29465	-0.034485	-0.027313	-0.00473	0.007019	-0.68146	-0.75272	0.12054	0.096588	-0.16968	0.37933	0.11383	0.098419	-0.013885	0.01297	-0.004578	0.5542	-0.086365	-0.000305	-0.002747
7.883	-0.021057	-0.031586	0.056763	-0.012817	0.002899	-0.037842	0.10895	0.002594	0.15442	-0.059509	-0.012207	-0.051422	-0.005646	0.098877	0.012054	0.072784	0.03418	-0.70725	-0.51376	0.2298	0.1268	-0.095215	0.29114	0.11749	0.12817	-0.006866	0.075226	-0.003052	-0.54764	0.027313	-0.001526	-0.010681
7.884	-0.012054	-0.033264	0.06897	0.009003	0.00412	-0.047607	0.089264	0.000305	0.1741	-0.006561	-0.000153	-0.098724	0.059052	0.39276	0.007172	0.058899	0.028992	-0.74677	0.039368	0.19898	0.030518	0.033112	0.10605	0.06424	0.14114	-0.004272	0.062866	0.00351	-1.2842	0.041046	0.001373	-0.004883
7.885	-0.022736	-0.039063	0.070801	0.039978	0.000458	-0.047913	0.091858	-0.006714	0.15457	0.14343	0.005188	-0.073547	0.002136	0.5751	-0.069885	-0.035858	-0.002899	-0.65948	0.05127	0.15396	-0.14725	0.1442	-0.016632	0.11017	0.20783	0.00061	0.00946	-0.001526	-0.77621	-0.096436	-0.003662	-0.011749
7.886	-0.016479	-0.063629	0.075684	0.024261	0.004272	-0.042114	0.098877	0.004425	0.15243	0.093079	-0.005035	-0.044708	-0.021057	0.50674	-0.039978	-0.030365	0.007935	-0.63858	0.035706	0.10986	-0.32242	0.18295	-0.093842	0.18829	0.21408	-0.000763	-0.11231	-0.003052	0.84854	-0.066223	0.00351	-0.009155
7.887	-0.007019	-0.070648	0.071869	0.005798	0.005798	-0.044861	0.056	0.011902	0.13977	-0.021057	-0.017242	0.50812	-0.14816	0.046692	0.033875	-0.42801	0.022125	-0.66162	-0.68649	0.17303	-0.16968	0.12116	-0.077667	0.1384	0.13321	0.001526	0.067902	0.00061	0.66849	0.018005	-0.002441	-0.016785
7.888	-0.010681	-0.073395	0.075989	-0.001068	0.00061	-0.023499	0.065002	0.006409	0.13184	-0.078278	0.008087	-0.22568	-0.12451	-0.46799	0.024567	0.088196	0.004883	-0.61218	-0.62546	0.077515	0.1387	0.0354	-0.25879	0.16235	0.11612	-0.012665	0.14603	-0.000153	-0.084381	0.17075	0.001068	-0.018311
7.889	-0.002136	-0.066681	0.09613	-0.006561	0.006256	-0.031586	0.09491	-0.002441	0.14374	-0.077209	-0.04303	-0.043793	-0.11932	-0.99014	0.019073	-0.12299	-0.001221	-0.56259	-0.37766	-0.048523	0.035553	0.012512	-0.33371	0.15152	0.15289	-0.015259	0.20233	0.002289	-0.12589	0.055084	-0.001984	-0.018005
7.89	-0.006561	-0.076141	0.080719	0.013885	0.00946	-0.037231	0.10819	-0.00946	0.12192	0.001984	-0.028839	0.22934	-0.028839	-0.80765	-0.01709	0.29556	-0.005035	-0.60257	-0.14572	-0.09079	-0.08255	0.10468	-0.097504	0.13657	0.13489	0.010223	0.036316	0.002441	0.36179	-0.18982	0.001373	-0.013885
7.891	-0.015411	-0.084076	0.06958	-0.005035	0.003357	-0.039978	0.13565	-0.007782	0.12543	0.045624	-0.005341	0.10925	0.056763	-0.7933	-0.015869	0.073547	0.058289	-0.66574	-0.49072	-0.005951	-0.16815	0.089722	0.016937	0.018005	0.052948	0.020905	-0.16937	0.005951	1.093	-0.20676	0.000916	-0.00946
7.892	-0.007172	-0.10178	0.058136	0.007172	-0.000458	-0.028381	0.22812	0.001221	0.11398	-0.055084	-0.008392	-0.1358	0.03952	-0.80307	0.031738	-0.033569	0.062866	-0.69138	0.53665	0.018768	-0.44418	-0.06012	-0.094452	-0.016327	0.072174	0.016479	-0.077972	0.001526	1.3472	-0.089417	0.00061	-0.002441
7.893	-0.006409	-0.10269	0.069275	0.010529	-0.003967	-0.027161	0.30426	0.005798	0.10681	-0.072937	-0.001984	-0.008392	0.07019	-0.059967	0.003357	-0.046844	0.085449	-0.77728	0.63599	-0.027313	-0.27481	-0.17502	-0.17593	-0.050812	0.085449	0.00885	0.10086	-0.001373	-0.52795	-0.13367	-0.005798	-0.000916
7.894	-0.000763	-0.055237	0.085907	0.007019	0.007782	-0.03479	0.38803	-0.001984	0.11734	-0.093689	-0.010986	-0.089417	0.045471	-0.15564	0.009308	0.030212	0.086517	-0.83145	0.52414	-0.026093	-0.072327	-0.15991	-0.098419	-0.17014	0.056763	-0.004578	-0.034332	-0.00412	-1.082	-0.019379	-0.001526	-0.006714
7.895	-0.003967	-0.091553	0.068817	0.01709	0.002289	-0.014496	0.44052	-0.004578	0.12177	-0.074768	-0.007782	-0.052185	0.011749	-0.11398	-0.016022	0.007629	0.01358	-0.95688	0.71854	-0.055389	-0.10315	-0.10101	-0.17548	-0.17181	0.17578	-0.005798	0.033264	-0.005798	-0.73196	0.02243	-0.001068	-0.009308
7.896	-0.005646	-0.10056	0.049286	0.016479	-0.000916	-0.026855	0.40726	0.005646	0.10956	-0.088501	-0.002747	0.021973	-0.003052	0.11948	-0.011139	-0.049133	-0.055084	-1.062	0.42267	-0.067291	-0.18402	0.056152	-0.09964	0.045013	0.29129	-0.004883	-0.031586	-0.000153	0.16083	-0.10834	-0.001831	-0.006866
7.897	-0.011902	-0.076752	0.053101	0.014801	0.001221	-0.042267	0.29297	-0.003204	0.086365	-0.069733	0.010986	-0.021667	-0.002136	0.29541	-0.005341	-0.056763	0.018616	-1.1179	-0.34042	-0.063934	-0.21729	0.15106	0.06073	0.093842	0.50552	0.001373	-0.20187	-0.00351	0.20676	-0.040436	0.001831	-0.005798
7.898	-0.000763	-0.074768	0.048676	0.01709	0.003967	-0.028534	0.2211	0.002289	0.078583	-0.06958	0.009003	0.045624	0.02655	0.30334	-0.012512	-0.023041	0.085907	-1.1212	-0.2533	-0.022278	0.22492	0.12543	0.093079	0.019989	0.49118	-0.009155	-0.14923	-0.005341	0.70847	-0.01297	0.001221	-0.014343
